# xmcd CD database file
#
# Track frame offsets:
#	150
#	16712
#	38062
#	55025
#	67275
#	79487
#	89212
#	100500
#	114562
#	132025
#	142525
#	156825
#	172662
#	187237
#	200187
#	212400
#
# Disc length: 3053 seconds
#
# Revision: 0
# Processed by: cddbd v1.4PL0 Copyright (c) Steve Scherf et al.
# Submitted via: Feurio! 1.63 - http://www.feurio.com
#
DISCID=d80beb10
DTITLE=Various Artist - County Lovesongs 2
DYEAR=1900
DGENRE=country
TTITLE0=Tammy Waynette and Mark Gray - Sometimes When We Touch
TTITLE1=Charlie Daniels Band - Talking To The Moon
TTITLE2=Willie Nelson and Waylon Young - Take It To The Limit
TTITLE3=Tanya Tucker - You Are So Beautiful
TTITLE4=George Jones - The Door
TTITLE5=Johnny Paychek - Loving You Beats All I' Ve Ever Seen
TTITLE6=Sandy Posey - Why Don't We Go Somewhere And Love
TTITLE7=Ricky Skoggs - If That's The Way You Feel
TTITLE8=Janie Fricke - Sleeping With Your Memory
TTITLE9=Willie Nelson - Blue Eyes Crying In The Rain
TTITLE10=Sweetheart Of The Rodeo - So Sad (To Watch Good Love Good Bad)
TTITLE11=Larry Gattlin and The Gattlin Brothers Band - Love Is Just A Game
TTITLE12=Lacy J. Dalton - Blue Eyed Blues
TTITLE13=Charlie Rich - I Take It On Home
TTITLE14=Merle Haggard - You Take Me For Granted
TTITLE15=George Jones and Waylon Jennings - Night Live
EXTD=
EXTT0=
EXTT1=
EXTT2=
EXTT3=
EXTT4=
EXTT5=
EXTT6=
EXTT7=
EXTT8=
EXTT9=
EXTT10=
EXTT11=
EXTT12=
EXTT13=
EXTT14=
EXTT15=
PLAYORDER=
